<svg class="icon" viewBox="0 0 1047 1024" version="1.1" xmlns="http://www.w3.org/2000/svg"
     width="16" height="16">
    <path d="M409.707812 225.394813a27.757982 27.757982 0 0 1-19.153007-7.772235 27.757982 27.757982 0 0 1 0-39.138755l3.053378-3.330958a185.423319 185.423319 0 0 1 262.312928 0l2.775798 3.053378a27.757982 27.757982 0 0 1-1.665479 39.416335 27.757982 27.757982 0 0 1-38.306015 0l-2.220638-2.498219a129.629775 129.629775 0 0 0-183.48026 0l-2.220639 2.220639a27.757982 27.757982 0 0 1-21.096066 8.049815z"
          fill="#6C707E"></path>
    <path d="M324.213228 138.789909A27.757982 27.757982 0 0 1 305.3378 92.711659l2.775798-3.053378a306.725699 306.725699 0 0 1 433.579677 0l2.498218 3.053378a27.757982 27.757982 0 0 1-1.665479 39.138755 27.757982 27.757982 0 0 1-38.028435 0l-2.220638-2.498219a251.764895 251.764895 0 0 0-355.024588 0l-2.220639 2.498219a27.757982 27.757982 0 0 1-20.818486 6.939495z"
          fill="#6C707E"></path>
    <path d="M409.707812 225.394813a27.757982 27.757982 0 0 1-19.153007-7.772235 27.757982 27.757982 0 0 1 0-39.138755l2.775798-3.330958a185.423319 185.423319 0 0 1 262.312928 0l2.775798 3.053378a27.757982 27.757982 0 0 1-1.665479 39.416335 27.757982 27.757982 0 0 1-38.306015 0l-1.943058-1.943059a129.352195 129.352195 0 0 0-183.75784 0l-2.220639 2.220638a27.757982 27.757982 0 0 1-20.818486 7.494656z"
          fill="#6C707E"></path>
    <path d="M987.906574 240.661703A435.800315 435.800315 0 0 0 760.568702 222.063855a509.636547 509.636547 0 0 0-158.220496 69.394954 41.636973 41.636973 0 0 0 44.690351 70.227694A429.415979 429.415979 0 0 1 778.888971 305.3378a348.085092 348.085092 0 0 1 166.547891 10.825613 25.537343 25.537343 0 0 1 18.042688 24.427024v468.832314a712.547394 712.547394 0 0 0-196.248932 25.537343 1001.230405 1001.230405 0 0 0-206.519385 94.932298V403.878636a64.398518 64.398518 0 0 0-21.651226-48.298889 762.234181 762.234181 0 0 0-90.7686-70.505273 512.967504 512.967504 0 0 0-161.273875-71.338014 438.298533 438.298533 0 0 0-224.562073 16.654789c-11.935932 4.163697-27.757982 11.103193-42.192132 16.932369A33.309578 33.309578 0 0 0 0 277.579818v565.430091a41.914553 41.914553 0 0 0 44.967931 41.636972 666.191564 666.191564 0 0 1 210.405502 20.818487 934.056089 934.056089 0 0 1 188.754276 86.604903l36.918116 22.483965a59.124501 59.124501 0 0 0 32.476839 9.437714h22.761545a103.814852 103.814852 0 0 0 55.515964-15.26689A955.429735 955.429735 0 0 1 791.935222 916.013401a675.906858 675.906858 0 0 1 210.683082-20.818487 41.914553 41.914553 0 0 0 44.967931-41.636972v-566.26283A33.864738 33.864738 0 0 0 1027.045328 256.483752c-12.491092-6.661916-27.757982-12.213512-39.138754-15.822049zM477.437288 916.013401a993.73575 993.73575 0 0 0-198.191991-89.658282A708.938856 708.938856 0 0 0 83.273946 800.262617v-471.885692a22.761545 22.761545 0 0 1 15.822049-23.039125 347.807512 347.807512 0 0 1 169.323689-11.380772 514.910563 514.910563 0 0 1 198.74715 107.700969 27.757982 27.757982 0 0 1 10.270454 22.483966z"
          fill="#6C707E"></path>
</svg>