<svg class="icon" viewBox="0 0 1024 1024" version="1.1" xmlns="http://www.w3.org/2000/svg"
     id="mx_n_1729234846040" width="16" height="16">
    <path d="M512 894.83a106.8 106.8 0 0 1-24.43-2.83l-287.11-67.56A149.3 149.3 0 0 1 85.33 679.08V299.74a148.38 148.38 0 0 1 43.73-105.59 149.92 149.92 0 0 1 139.8-39.76L509.62 211l245.59-56.67a149.37 149.37 0 0 1 183.46 145.41v379.34a149.29 149.29 0 0 1-115.15 145.36L536.44 892a107 107 0 0 1-24.44 2.83zM234.67 214.41a85.34 85.34 0 0 0-85.34 85.33v379.34a85.35 85.35 0 0 0 65.78 83.07l287.12 67.56a43 43 0 0 0 19.55 0l287.1-67.56a85.35 85.35 0 0 0 65.79-83.07V299.74a85.34 85.34 0 0 0-104.88-83.06h-0.14l-260.17 60-255.27-60a85.36 85.36 0 0 0-19.54-2.27z"
          fill="#CED0D6" ></path>
    <path d="M405.33 426.67m42.67 0l127.99 0q42.67 0 42.67 42.67l0 127.99q0 42.67-42.67 42.67l-127.99 0q-42.67 0-42.67-42.67l0-127.99q0-42.67 42.67-42.67Z"
          fill="#CED0D6"></path>
</svg>