<svg class="icon" viewBox="0 0 1024 1024" version="1.1" xmlns="http://www.w3.org/2000/svg"
     width="16" height="16">
    <path d="M512 894.83c-8.22 0-16.44-0.96-24.43-2.83l-287.11-67.56c-32.61-7.67-62.04-26.35-82.85-52.62s-32.27-59.21-32.27-92.73V299.74c0-39.88 15.53-77.38 43.73-105.59 36.35-36.32 89.67-51.6 139.8-39.76l240.76 56.65 245.58-56.67c38.75-9.12 78.81-2.57 112.73 18.41 33.9 20.98 57.62 53.93 66.75 92.77 2.65 11.15 3.98 22.66 3.98 34.2v379.34c0 33.54-11.46 66.48-32.27 92.73-20.83 26.27-50.25 44.96-82.88 52.62L536.44 892c-8 1.88-16.22 2.83-24.44 2.83zM234.67 214.41c-22.79 0-44.22 8.88-60.34 25-16.11 16.11-24.99 37.54-24.99 60.33v379.34c0 19.15 6.55 37.98 18.44 52.98 11.89 15.02 28.71 25.69 47.34 30.08l287.11 67.56a43.03 43.03 0 0 0 19.55 0l287.09-67.56c18.65-4.38 35.46-15.06 47.35-30.08 11.9-15 18.44-33.81 18.44-52.98V299.74c0-6.58-0.77-13.16-2.27-19.51-5.23-22.23-18.77-41.05-38.15-53.04-19.4-12.01-42.31-15.72-64.46-10.51l-0.15 0.03-260.17 60.03-255.27-60.06a85.065 85.065 0 0 0-19.52-2.27z"
          fill="#CED0D6"></path>
    <path d="M606.34 571.5l-117.93 58.96c-21.08 10.54-46.71 2-57.24-19.08a42.685 42.685 0 0 1-4.5-19.08V474.37c0-23.56 19.1-42.67 42.67-42.67 6.62 0 13.16 1.54 19.08 4.5l117.93 58.96c21.08 10.54 29.62 36.17 19.08 57.24a42.713 42.713 0 0 1-19.09 19.1z"
          fill="#CED0D6"></path>
</svg>