<svg class="icon" viewBox="0 0 1024 1024" version="1.1" xmlns="http://www.w3.org/2000/svg"
     width="16" height="16">
    <path d="M887.222857 48.761905a97.52381 97.52381 0 0 1 97.52381 97.523809v675.84c0 14.140952-9.703619 25.990095-22.869334 29.305905-16.091429 33.694476-38.034286 69.87581-53.979428 96.158476-12.092952 19.894857-20.675048 34.084571-20.675048 37.156572 0 16.676571-13.507048 30.232381-30.232381 30.232381H275.260952a136.045714 136.045714 0 0 1-135.899428-135.899429V184.612571A136.045714 136.045714 0 0 1 275.21219 48.761905h611.961905z m24.868572 803.59619H275.163429c-9.362286 0-18.334476-0.731429-26.575239-1.462857-28.574476-2.389333-48.90819-4.096-48.90819 28.184381a75.580952 75.580952 0 0 0 75.483429 75.483429H830.902857c5.266286 0 48.030476-57.051429 81.091048-102.204953zM199.631238 184.612571v630.345143a135.070476 135.070476 0 0 1 75.532191-23.015619h649.118476V109.129143H275.21219a75.580952 75.580952 0 0 0-75.483428 75.483428z m363.812572 34.816a45.153524 45.153524 0 1 0 0.097523 90.307048 45.153524 45.153524 0 0 0-0.097523-90.307048z m-29.744762 225.865143c0-11.995429 13.312-21.74781 29.744762-21.747809 16.432762 0 29.744762 9.752381 29.744761 21.747809v220.745143c0 11.995429-13.312 21.74781-29.744761 21.74781-16.432762 0-29.744762-9.752381-29.744762-21.74781V445.293714z"
          fill="#CED0D6"></path>
    <path d="M961.877333 851.431619l-1.170285-4.729905-2.243048 0.585143-0.975238 2.048 4.388571 2.096762z m-53.979428 96.158476l4.144762 2.584381v-0.097524l-4.144762-2.486857z m0 0l-4.144762-2.633143-0.24381 0.438858 4.388572 2.194285z m0 0l4.096 2.730667 0.243809-0.585143-4.388571-2.145524z m0 0l-4.096-2.730666-0.097524 0.195047 4.193524 2.535619z m4.144762-95.232l3.949714 2.876953 5.656381-7.801905h-9.606095v4.87619zM248.685714 850.895238l0.390096-4.87619-0.390096 4.87619z m-48.90819-35.937524h-4.876191v9.167238l7.558096-5.12-2.681905-4.047238z m724.601905-23.015619v4.876191h4.87619v-4.876191h-4.87619z m0-682.812952h4.87619v-4.876191h-4.87619v4.876191zM989.622857 146.285714a102.4 102.4 0 0 0-102.4-102.4v9.752381c51.2 0 92.647619 41.447619 92.647619 92.647619h9.752381z m0 675.84V146.285714h-9.752381v675.84h9.752381z m-26.526476 34.03581a35.05981 35.05981 0 0 0 26.526476-33.987048h-9.752381a25.307429 25.307429 0 0 1-19.163428 24.527238l2.389333 9.45981z m-51.053714 93.96419c15.896381-26.233905 38.034286-62.610286 54.272-96.548571l-8.777143-4.242286c-16.091429 33.450667-37.888 69.436952-53.833143 95.719619l8.338286 5.071238z m0 0l-8.289524-5.12 8.289524 5.168762z m0.195047-0.390095l-8.728381-4.339809 8.777143 4.388571z m-0.292571 0.536381l-8.094476-5.36381 8.094476 5.36381z m-19.846095 34.474667c0 0.487619-0.146286 0.633905 0.097523 0a129.950476 129.950476 0 0 1 5.071239-9.849905c3.608381-6.339048 8.777143-14.823619 14.774857-24.771048l-8.289524-5.071238c-6.046476 9.898667-11.264 18.529524-14.969905 25.014857a139.946667 139.946667 0 0 0-4.437333 8.289524 33.401905 33.401905 0 0 0-1.316572 3.072 10.044952 10.044952 0 0 0-0.682666 3.31581h9.752381z m-35.108572 35.108571c19.407238 0 35.108571-15.750095 35.108572-35.108571h-9.752381c0 13.994667-11.312762 25.35619-25.356191 25.35619v9.752381z m-581.778286 0h581.827048v-9.752381H275.21219v9.752381z m-140.775619-140.775619a140.921905 140.921905 0 0 0 140.775619 140.726857v-9.752381a131.169524 131.169524 0 0 1-131.023238-130.974476h-9.752381z m0-694.467048v694.467048h9.752381V184.612571h-9.752381zM275.21219 43.885714a140.921905 140.921905 0 0 0-140.775619 140.726857h9.752381A131.169524 131.169524 0 0 1 275.21219 53.638095V43.885714z m611.961905 0H275.260952v9.752381h611.961905V43.885714zM275.260952 857.234286h636.830477v-9.752381H275.21219v9.752381z m-27.014095-1.462857c8.289524 0.682667 17.408 1.462857 27.014095 1.462857v-9.752381c-9.118476 0-17.895619-0.731429-26.185142-1.462857l-0.828953 9.752381z m-43.593143 23.30819c0-7.606857 1.219048-12.678095 3.023238-16.042667a13.653333 13.653333 0 0 1 7.558096-6.485333 39.253333 39.253333 0 0 1 13.750857-1.950476c5.656381 0 12.092952 0.585143 19.260952 1.170286l0.828953-9.752381c-7.070476-0.585143-13.945905-1.121524-20.089905-1.121524a48.664381 48.664381 0 0 0-17.212953 2.535619 23.405714 23.405714 0 0 0-12.678095 10.971428 43.105524 43.105524 0 0 0-4.193524 20.675048h9.752381z m70.607238 70.607238a70.704762 70.704762 0 0 1-70.607238-70.607238h-9.752381a80.457143 80.457143 0 0 0 80.359619 80.359619v-9.752381z m555.739429 0H275.21219v9.752381H830.902857v-9.752381z m77.190095-100.205714c-16.579048 22.576762-35.449905 48.079238-50.907428 67.925333a622.689524 622.689524 0 0 1-19.69981 24.332191 103.375238 103.375238 0 0 1-7.94819 8.192c-0.195048 0.097524-0.195048 0.097524-0.097524 0 0.097524 0 0.633905-0.24381 1.462857-0.24381v9.752381a6.339048 6.339048 0 0 0 2.681905-0.633905 26.233905 26.233905 0 0 0 4.339809-3.267047c1.901714-1.80419 4.242286-4.33981 6.924191-7.41181 5.36381-6.144 12.288-14.774857 19.992381-24.722286 15.60381-19.992381 34.57219-45.592381 51.102476-68.169142l-7.850667-5.753905z m-703.536762-34.523429V184.612571h-9.752381v630.345143h9.752381z m70.607238-27.891809c-28.964571 0-55.832381 8.874667-78.214095 23.893333l5.412572 8.045714a130.194286 130.194286 0 0 1 72.801523-22.137904v-9.752381z m649.118477 0H275.21219v9.752381h649.118477v-9.752381z m-4.876191-677.936762v682.812952h9.752381V109.129143h-9.752381z m-644.242286 4.87619h649.118477v-9.752381H275.21219v9.752381zM204.604952 184.612571c0-38.912 31.695238-70.607238 70.607238-70.607238v-9.752381c-44.373333 0-80.359619 36.08381-80.359619 80.359619h9.752381z m318.659048 79.969524c0-22.235429 18.041905-40.277333 40.228571-40.277333v-9.752381c-27.550476 0-49.980952 22.430476-49.980952 49.980952h9.752381z m40.228571 40.228572a40.277333 40.277333 0 0 1-40.228571-40.277334h-9.752381c0 27.599238 22.430476 50.029714 49.980952 50.029715v-9.752381z m40.277334-40.277334c0 22.235429-18.041905 40.277333-40.277334 40.277334v9.752381c27.599238 0 50.029714-22.430476 50.029715-50.029715h-9.752381z m-40.277334-40.228571c22.235429 0 40.277333 18.041905 40.277334 40.228571h9.752381c0-27.550476-22.430476-49.980952-50.029715-49.980952v9.752381z m0 194.364952a40.764952 40.764952 0 0 0-23.893333 7.314286 24.137143 24.137143 0 0 0-10.727619 19.309714h9.752381c0-4.047238 2.243048-8.143238 6.729143-11.410285a31.012571 31.012571 0 0 1 18.139428-5.461334v-9.752381z m34.620953 26.624a24.137143 24.137143 0 0 0-10.727619-19.309714 40.764952 40.764952 0 0 0-23.893334-7.314286v9.752381c7.314286 0 13.702095 2.194286 18.188191 5.461334 4.486095 3.267048 6.729143 7.363048 6.729143 11.410285h9.752381z m0 220.745143V445.293714h-9.752381v220.745143h9.752381z m-34.620953 26.624a40.764952 40.764952 0 0 0 23.893334-7.314286 24.137143 24.137143 0 0 0 10.727619-19.309714h-9.752381c0 4.047238-2.194286 8.192-6.680381 11.459048a31.061333 31.061333 0 0 1-18.188191 5.412571v9.752381z m-34.620952-26.624c0 7.94819 4.388571 14.726095 10.727619 19.309714 6.339048 4.632381 14.774857 7.314286 23.893333 7.314286v-9.752381a31.012571 31.012571 0 0 1-18.139428-5.412571c-4.486095-3.267048-6.729143-7.41181-6.729143-11.459048h-9.752381z m0-220.745143v220.745143h9.752381V445.293714h-9.752381z"
          fill="#CED0D6"></path>
</svg>