<svg class="icon" viewBox="0 0 1166 1024" version="1.1" xmlns="http://www.w3.org/2000/svg"
     width="16" height="16">
    <path d="M760.32 766.065778l-110.136889 15.559111a58.794667 58.794667 0 0 1-66.474667-66.474667l15.559112-109.966222a66.844444 66.844444 0 0 1 18.944-38.030222L953.912889 231.452444a61.696 61.696 0 0 1 87.324444-0.028444l92.643556 92.643556c24.177778 24.092444 24.177778 63.203556 0.028444 87.324444L798.179556 747.121778c-10.24 10.24-23.552 16.896-37.888 18.944z m296.561778-398.307556l-59.278222-59.306666-314.709334 314.680888-9.756444 69.063112 69.063111-9.756445 314.680889-314.680889z"
          fill="#CED0D6"></path>
    <path d="M851.626667 371.484444l113.777777 113.777778 60.302223-60.302222-113.777778-113.777778z" fill="#CED0D6"
    ></path>
    <path d="M483.555556 246.385778h85.333333c0-82.204444 57.173333-146.830222 124.899555-146.830222h257.877334c-0.568889 0 1.223111 2.019556 1.223111 6.968888v63.516445h85.333333V106.524444C1038.222222 56.632889 1000.732444 14.222222 951.665778 14.222222h-257.877334c-68.920889 0-129.393778 36.209778-167.566222 91.875556C488.049778 50.403556 427.576889 14.222222 358.684444 14.222222H100.778667C51.768889 14.222222 14.222222 56.632889 14.222222 106.524444v742.684445c0 49.891556 37.518222 92.330667 86.556445 92.330667h263.765333c48.924444 0 69.688889 9.898667 112.810667 49.123555a71.992889 71.992889 0 0 0 97.735111 0c43.093333-39.224889 63.886222-49.123556 112.810666-49.123555h263.765334c49.066667 0 86.556444-42.439111 86.556444-92.330667V575.146667h-85.333333v274.090666c0 4.949333-1.792 6.997333-1.223111 6.997334h-263.765334c-69.176889 0-108.600889 17.123556-161.678222 63.687111-53.077333-46.563556-92.472889-63.715556-161.678222-63.715556H100.778667c0.568889 0-1.223111-2.019556-1.223111-6.968889V106.524444c0-4.920889 1.792-6.968889 1.223111-6.968888h257.905777C426.382222 99.555556 483.555556 164.209778 483.555556 246.385778h85.333333c0-52.48-15.815111-101.205333-42.666667-140.316445-26.851556 39.111111-42.666667 87.836444-42.666666 140.316445z"
          fill="#CED0D6"></path>
    <path d="M170.666667 369.777778h199.111111v-85.333334H170.666667zM170.666667 540.444444h199.111111v-85.333333H170.666667zM170.666667 682.666667h199.111111v-85.333334H170.666667zM654.222222 369.777778h113.777778v-85.333334h-113.777778z"
          fill="#CED0D6"></path>
</svg>