<svg class="icon" viewBox="0 0 1152 1024" version="1.1" xmlns="http://www.w3.org/2000/svg"
     width="16" height="16">
    <path d="M1004.507391 497.017532v-75.83637h1.386043C1001.141286 187.775868 810.439326 0 575.889997 0S150.660708 187.775868 145.90856 421.181162H147.404606v71.414232a147.404606 147.404606 0 1 0 0 294.809212v0.770024h85.142661V421.181162h1.122035a342.3967 342.3967 0 0 1 684.551392 0h0.748024V791.804744h85.626676a147.404606 147.404606 0 0 0 0-294.809213zM567.969749 1016.387762h7.590237v7.590237h-7.590237z"
          fill="#6C707E"></path>
    <path d="M375.287728 731.962874l254.239945 59.819869V253.403919l-254.239945 59.819869V731.962874zM748.111378 331.220351v396.540392l-79.972499 32.627019 107.671365-3.762117V299.077346l-107.671365-8.250258 79.972499 40.393263z"
          fill="#6C707E"></path>
</svg>