<svg class="icon" viewBox="0 0 1024 1024" version="1.1" xmlns="http://www.w3.org/2000/svg"
     width="16" height="16">
    <path d="M369.664 973.312c-42.496 0-77.312-34.816-77.312-77.312V263.168c0-42.496 34.816-77.312 77.312-77.312h492.032c42.496 0 77.312 34.816 77.312 77.312v632.32c0 42.496-34.816 77.312-77.312 77.312H369.664z"
          fill="#FFFFFF"></path>
    <path d="M861.696 209.92c29.184 0 53.76 24.064 53.76 53.76V896c0 29.184-24.064 53.76-53.76 53.76H369.664c-29.184 0-53.76-24.064-53.76-53.76V263.168c0-29.184 24.064-53.76 53.76-53.76h492.032m0-47.616H369.664c-55.808 0-101.376 45.568-101.376 101.376v632.32c0 55.808 45.568 101.376 101.376 101.376h492.032c55.808 0 101.376-45.568 101.376-101.376v-632.32c0.512-55.808-45.056-101.376-101.376-101.376z"
          fill="#333333"></path>
    <path d="M369.664 884.736c-42.496 0-77.312-34.816-77.312-77.312V174.592c0-42.496 34.816-77.312 77.312-77.312h492.032c42.496 0 77.312 34.816 77.312 77.312v632.32c0 42.496-34.816 77.312-77.312 77.312H369.664z"
          fill="#6C707E"></path>
    <path d="M861.696 121.344c29.184 0 53.76 24.064 53.76 53.76v632.32c0 29.184-24.064 53.76-53.76 53.76H369.664c-29.184 0-53.76-24.064-53.76-53.76V174.592c0-29.184 24.064-53.76 53.76-53.76h492.032m0-47.616H369.664c-55.808 0-101.376 45.568-101.376 101.376v632.32c0 55.808 45.568 101.376 101.376 101.376h492.032c55.808 0 101.376-45.568 101.376-101.376v-632.32c0.512-55.808-45.056-101.376-101.376-101.376z"
          fill="#333333"></path>
    <path d="M583.168 342.528c-5.632 0-10.752-2.048-15.36-5.632L512 290.304l-55.808 46.592c-4.608 3.584-9.728 5.632-15.36 5.632-3.584 0-7.168-0.512-10.24-2.048-8.192-4.096-13.824-12.288-13.824-21.504V121.344c0-13.312 10.752-24.064 24.064-24.064h142.336c13.312 0 24.064 10.752 24.064 24.064v197.12c0 9.216-5.632 17.92-13.824 21.504-3.072 1.536-6.656 2.56-10.24 2.56z"
          fill="#CBCBCB"></path>
</svg>